PathFileType	4	(X/Y/Z)	c:/Users/goper/Files/vsCode/490R/osim_files/C03/C03_fast_04.trc
DataRate	CameraRate	NumFrames	NumMarkers	Units                	OrigDataRate	OrigDataStartFrame	OrigNumFrames
250.00	250.00	9	36	mm	250.0	1414	2826
                Frame#	Time	LPSIS			LASIS			LTH1			LTH2			LTH3			LTH4			LLFE			LMFE			LSH1			LSH2			LSH3			LSH4			LLMAL			LMMAL			LCAL			LMTP5			LTOE			LMTP1			RPSIS			RASIS			RTH1			RTH2			RTH3			RTH4			RLFE			RMFE			RSH1			RSH2			RSH3			RSH4			RLMAL			RMMAL			RCAL			RMTP1			RTOE			RMTP5		
		X1	Y1	Z1	X2	Y2	Z2	X3	Y3	Z3	X4	Y4	Z4	X5	Y5	Z5	X6	Y6	Z6	X7	Y7	Z7	X8	Y8	Z8	X9	Y9	Z9	X10	Y10	Z10	X11	Y11	Z11	X12	Y12	Z12	X13	Y13	Z13	X14	Y14	Z14	X15	Y15	Z15	X16	Y16	Z16	X17	Y17	Z17	X18	Y18	Z18	X19	Y19	Z19	X20	Y20	Z20	X21	Y21	Z21	X22	Y22	Z22	X23	Y23	Z23	X24	Y24	Z24	X25	Y25	Z25	X26	Y26	Z26	X27	Y27	Z27	X28	Y28	Z28	X29	Y29	Z29	X30	Y30	Z30	X31	Y31	Z31	X32	Y32	Z32	X33	Y33	Z33	X34	Y34	Z34	X35	Y35	Z35	X36	Y36	Z36

1414	5.65200	1082.90210	1040.24805	316.82248	899.14166	982.28314	333.02512	0.00000	0.00000	0.00000	847.68787	590.11646	390.92963	809.92108	675.80829	391.34637	789.41406	620.97070	387.34204	801.15228	522.71942	384.32175	786.79279	515.98401	275.28439	854.94287	337.36948	386.00949	846.67737	291.62360	382.87888	796.06299	345.38376	398.84024	796.13354	297.33646	394.69879	793.66589	128.14777	369.87067	766.97302	145.77055	295.14978	853.68512	84.48270	331.48868	654.42438	73.68008	388.64417	625.51984	102.77503	337.82965	647.45282	89.43540	297.00888	1089.22314	1033.53003	205.86351	929.04486	977.52313	129.33745	1138.74487	628.65338	143.92409	1152.83655	570.24774	160.08009	1079.99500	613.53223	120.20479	1085.73999	552.65015	130.15402	1103.58386	484.94693	154.74698	1105.34607	507.53348	263.53714	1229.08118	323.23538	157.85614	1234.94812	276.31250	162.68315	1171.07227	305.04465	144.97401	1185.61084	264.84692	150.99809	1219.99060	114.03092	188.64522	1207.73645	119.71294	265.98111	1295.76221	78.74680	218.89236	1097.99438	53.86213	275.51236	1065.44287	68.16023	239.09465	1112.34473	42.27711	170.31500
1415	5.65600	1076.55090	1038.83301	317.49606	892.95514	979.77875	332.96292	872.54626	642.53613	400.22476	841.80225	588.00397	391.40411	803.94794	673.57318	391.75372	783.47021	618.74432	387.74103	794.82391	520.92700	384.48392	780.86945	514.36475	275.36227	843.94336	334.43411	387.04166	834.41724	288.78290	383.87674	785.28998	344.09390	399.42776	783.93811	295.97479	395.40469	776.49805	126.41005	371.04465	751.53320	145.13211	296.00943	835.77307	81.00803	333.15677	635.62018	75.94878	387.68680	608.40833	106.29026	336.66617	629.35199	91.95061	297.53290	1083.74548	1032.49048	206.53035	923.13092	976.25885	129.26680	1135.84412	628.96661	144.62830	1150.09583	570.53998	160.77069	1077.66003	613.76379	119.88885	1083.41882	552.62390	130.42514	1101.40051	485.05869	154.91808	1102.38562	507.09592	263.86798	1227.83069	323.78525	158.58835	1233.97803	277.00192	163.42076	1170.09937	305.42169	145.50053	1184.94507	265.30710	151.61838	1220.09680	114.40658	188.38133	1207.19958	120.07509	266.47830	1295.56323	79.60587	219.24368	1097.74780	53.72768	275.55206	1065.20520	68.01398	239.14922	1112.33264	42.30304	170.41582
1416	5.66000	1070.16589	1037.28174	318.19382	887.45160	978.58691	333.18420	0.00000	0.00000	0.00000	836.07709	585.71906	391.92731	800.97260	673.54272	395.28864	775.86230	614.38995	385.12671	788.79413	519.00360	384.63092	775.13794	512.53015	275.44611	833.00873	331.47836	387.95068	822.27899	286.10327	384.86038	774.32715	342.86566	400.16312	772.08301	294.73395	396.13571	759.88654	125.32622	372.13983	736.13098	144.59476	296.78510	818.07031	77.82970	335.06119	617.14386	78.61388	386.82278	591.50836	110.02145	335.52319	612.79889	95.22319	296.61713	1077.72241	1031.19409	207.23003	917.20813	975.08105	129.12482	1132.80945	629.27344	145.32336	1147.36072	570.90363	161.57625	1074.84717	613.69000	120.27425	1080.95728	552.57733	130.78976	1099.31824	485.22018	155.05219	1100.50891	507.64914	264.37326	1226.77014	324.56760	159.43954	1233.02954	277.74545	164.22072	1168.61682	305.73975	145.63280	1184.11060	265.85721	152.08408	1219.41345	115.13463	189.23172	1206.85315	120.55787	266.95206	1295.23682	80.32303	219.72839	1097.52429	53.56801	275.59079	1064.99487	67.82479	239.21036	1112.51599	42.02269	170.09709
1417	5.66400	1063.78479	1035.67334	318.87411	880.17432	976.86987	332.93304	0.00000	0.00000	0.00000	829.64972	582.67523	391.98035	792.65308	668.77124	392.85245	772.26666	613.91187	388.48984	782.77966	516.97052	384.75299	769.58466	510.65079	275.44080	822.20367	328.54230	388.84763	809.67456	282.76700	385.59143	763.80261	341.63602	400.69815	760.32422	293.48001	396.78882	741.11487	123.91497	372.53497	720.89996	144.17230	297.57410	800.34644	74.74264	336.89789	598.90527	81.28459	385.87622	574.93402	113.94218	334.48523	596.30774	98.63129	295.76453	1072.25085	1030.02087	207.93297	911.38837	973.75470	129.06870	1129.66785	629.56488	146.12401	1144.51245	571.22418	162.37883	1071.75952	613.38104	121.32267	1078.45886	552.52295	131.19034	1097.26367	485.32379	155.54391	1097.75439	507.63617	264.96207	1225.52295	325.33328	160.31380	1232.09277	278.46027	165.06619	1167.74292	306.18973	146.31302	1183.24268	266.27814	152.75574	1219.13574	115.76262	189.87206	1206.08704	120.81361	267.55771	1294.93689	80.76190	220.37466	1097.33411	53.38176	275.63278	1064.79858	67.62014	239.23846	1112.45959	42.27766	169.99660
1418	5.66800	1057.37329	1034.04321	319.56033	873.58441	975.46667	332.93961	0.00000	0.00000	0.00000	824.28992	580.18982	392.40646	787.08350	666.17218	393.43604	766.86853	611.35974	388.80811	776.83881	514.87286	384.80789	764.22528	508.69623	275.35138	811.34705	325.23050	389.59494	798.03436	280.63367	386.57544	753.58752	340.58997	401.42822	748.69757	292.35205	397.49603	724.78168	123.18556	373.70673	705.90887	143.83690	298.41797	782.76044	72.02037	338.83286	581.10358	84.58616	385.40604	558.70587	118.10732	333.42328	580.39966	102.02409	295.09048	1065.60339	1028.51526	208.67912	905.56586	972.46320	129.12872	1126.42725	629.90387	146.90746	1141.50244	571.54004	163.20190	1068.70813	613.26599	121.73815	1075.89246	552.57739	131.55159	1095.04749	485.41571	155.83640	1094.13025	507.22992	265.30438	1224.16260	325.99890	161.14502	1231.06055	279.31897	165.89331	1166.55408	306.65305	146.89938	1181.71936	266.85947	153.80992	1218.78381	116.35825	190.33522	1205.53369	121.18370	268.10071	1294.53870	81.74647	220.72903	1097.41394	53.39840	275.61554	1064.63623	67.40849	239.29790	1112.52576	42.32291	170.08641
1419	5.67200	1050.98950	1032.34070	320.25351	867.06549	974.02710	333.01099	0.00000	0.00000	0.00000	818.95251	577.60315	392.76645	781.49847	663.42303	394.01535	761.49670	608.49835	389.35852	770.93988	512.80450	384.84952	759.00983	506.57559	275.30298	801.19543	323.33926	390.80026	786.49646	278.61246	387.61649	743.11084	339.45645	401.67789	737.18591	291.47580	398.03687	708.66223	122.84615	374.79434	691.00903	143.67038	299.12552	765.60754	69.38882	340.97516	563.55835	88.42741	384.91568	542.88354	122.47576	332.47662	564.65637	105.73732	294.40936	1059.53796	1027.09058	209.43784	899.85132	971.16998	129.17558	1122.99622	630.10870	147.70813	1138.46021	571.91510	164.08199	1065.80859	613.43091	121.63448	1073.05896	552.47455	132.00377	1092.71985	485.26584	156.26965	1091.84302	507.60727	265.94180	1222.91992	326.91479	162.07365	1230.05493	280.12207	166.84041	1165.47986	307.16367	147.47298	1180.90491	267.46478	154.45256	1218.44360	116.98918	191.23506	1203.32166	123.22324	270.63345	1294.21045	82.21738	221.43089	1096.61890	53.45653	276.19449	1064.44360	67.14872	239.32916	1112.59741	42.36307	170.21205
1420	5.67600	1044.60632	1030.58423	320.90280	860.56885	973.74310	332.89215	844.82556	629.98932	403.15796	814.65454	575.75146	394.19241	775.94922	660.70770	394.68982	756.14325	605.73383	389.78394	765.18604	510.63272	384.86606	753.94141	504.50742	275.14673	790.92230	320.95410	391.70483	774.98578	276.66968	388.45273	733.00800	338.50378	402.12216	725.76147	290.78799	399.12296	692.70477	122.72896	375.85193	676.57147	143.81918	299.99799	748.88281	67.51269	342.67206	546.18439	92.38057	383.25882	527.51794	126.99345	331.58832	549.01593	109.85416	293.61185	1053.34839	1025.61926	210.17838	893.99115	969.79767	129.30499	1119.43506	630.38831	148.54506	1135.11658	572.16956	164.93805	1062.56299	613.32050	122.11338	1070.21008	552.44165	132.39220	1090.34155	485.29218	156.61693	1089.93628	508.33401	267.03076	1221.52905	327.70898	163.04401	1227.70142	280.13531	167.81354	1164.30774	307.67645	148.20122	1179.79871	268.06363	155.09163	1218.19629	117.74958	191.43663	1202.72351	123.63998	271.11209	1293.86975	83.40955	221.77325	1096.35034	53.34938	276.24399	1064.19385	66.90344	239.35994	1112.69922	42.39210	170.33551
1421	5.68000	1038.13367	1028.77161	321.55911	854.81445	972.63196	333.25516	839.38519	627.53912	403.68076	809.58728	573.21680	394.44250	771.86499	659.93018	397.77063	750.86755	602.91846	390.23083	759.38501	508.50998	384.88049	749.22034	502.33875	274.92090	780.65271	318.76718	392.34631	763.72156	274.93701	389.24838	723.00067	337.61868	402.50479	714.67792	290.11618	399.72458	676.58411	122.17726	376.59335	662.86353	144.17989	300.71970	731.25806	65.21220	344.69247	529.73700	96.38293	382.57489	512.47266	131.60318	330.75156	534.55914	114.32246	291.62643	1047.29175	1024.15833	210.83932	888.08636	968.48438	129.39450	1115.66138	630.57794	149.38220	1131.63403	572.43884	165.81139	1058.87024	612.91693	123.12163	1067.10352	552.28717	132.89560	1088.05261	485.30338	156.67731	1084.15259	506.60593	266.89319	1219.92749	328.53012	163.98477	1227.14514	281.81454	169.31818	1162.90063	308.18060	148.90651	1178.79944	268.63705	155.75714	1218.15601	118.26335	191.73293	1202.14368	124.03658	271.55371	1293.51831	84.41516	222.33791	1095.89734	52.99591	276.13300	1063.88696	66.64885	239.37057	1113.08911	42.22201	170.07523
1422	5.68400	1031.72473	1026.91663	322.19986	847.32941	969.72888	333.36206	834.20972	625.01532	403.97754	804.36700	570.39880	393.72485	764.92059	655.08392	396.13956	745.69995	600.00122	390.74988	753.63959	506.35278	384.86304	744.44513	500.04678	274.70050	770.43634	316.57526	392.94846	752.18439	273.14755	390.06311	713.20538	336.88013	402.88068	703.84381	289.53418	400.19452	661.22827	122.47053	377.54944	648.22943	144.25052	301.23788	714.50958	63.66326	346.42694	513.23102	101.41701	383.20383	497.93616	136.29018	329.99615	519.58435	118.11272	291.22339	1041.04333	1022.66882	211.58151	882.16858	967.23663	129.49556	1111.71704	630.66980	150.22452	1127.98584	572.69128	166.69447	1055.14465	612.66870	123.63901	1063.75061	552.07544	133.42906	1085.29639	485.19241	157.21866	1080.89404	506.88779	267.51111	1218.25647	329.46295	165.01768	1226.31726	282.88828	169.64523	1161.43359	308.67215	149.62439	1178.24902	269.32675	155.89275	1217.28870	119.14186	192.62450	1201.27576	124.67550	271.89737	1293.04858	85.34336	222.93510	1095.63525	52.84611	276.21857	1063.57397	66.34153	239.38031	1113.14050	42.24814	170.19002
